<svg id="visual" viewBox="0 0 725 900" width="725" height="900" xmlns="http://www.w3.org/2000/svg" xmlns:xlink="http://www.w3.org/1999/xlink" version="1.1"><rect x="0" y="0" width="725" height="900" fill="#001220"></rect><defs><linearGradient id="grad1_0" x1="0%" y1="0%" x2="100%" y2="100%"><stop offset="30%" stop-color="#204473" stop-opacity="1"></stop><stop offset="70%" stop-color="#204473" stop-opacity="1"></stop></linearGradient></defs><defs><linearGradient id="grad1_1" x1="0%" y1="0%" x2="100%" y2="100%"><stop offset="30%" stop-color="#204473" stop-opacity="1"></stop><stop offset="70%" stop-color="#13375d" stop-opacity="1"></stop></linearGradient></defs><defs><linearGradient id="grad1_2" x1="0%" y1="0%" x2="100%" y2="100%"><stop offset="30%" stop-color="#0a2b48" stop-opacity="1"></stop><stop offset="70%" stop-color="#13375d" stop-opacity="1"></stop></linearGradient></defs><defs><linearGradient id="grad1_3" x1="0%" y1="0%" x2="100%" y2="100%"><stop offset="30%" stop-color="#0a2b48" stop-opacity="1"></stop><stop offset="70%" stop-color="#051f33" stop-opacity="1"></stop></linearGradient></defs><defs><linearGradient id="grad1_4" x1="0%" y1="0%" x2="100%" y2="100%"><stop offset="30%" stop-color="#001220" stop-opacity="1"></stop><stop offset="70%" stop-color="#051f33" stop-opacity="1"></stop></linearGradient></defs><defs><linearGradient id="grad2_0" x1="0%" y1="0%" x2="100%" y2="100%"><stop offset="30%" stop-color="#204473" stop-opacity="1"></stop><stop offset="70%" stop-color="#204473" stop-opacity="1"></stop></linearGradient></defs><defs><linearGradient id="grad2_1" x1="0%" y1="0%" x2="100%" y2="100%"><stop offset="30%" stop-color="#13375d" stop-opacity="1"></stop><stop offset="70%" stop-color="#204473" stop-opacity="1"></stop></linearGradient></defs><defs><linearGradient id="grad2_2" x1="0%" y1="0%" x2="100%" y2="100%"><stop offset="30%" stop-color="#13375d" stop-opacity="1"></stop><stop offset="70%" stop-color="#0a2b48" stop-opacity="1"></stop></linearGradient></defs><defs><linearGradient id="grad2_3" x1="0%" y1="0%" x2="100%" y2="100%"><stop offset="30%" stop-color="#051f33" stop-opacity="1"></stop><stop offset="70%" stop-color="#0a2b48" stop-opacity="1"></stop></linearGradient></defs><defs><linearGradient id="grad2_4" x1="0%" y1="0%" x2="100%" y2="100%"><stop offset="30%" stop-color="#051f33" stop-opacity="1"></stop><stop offset="70%" stop-color="#001220" stop-opacity="1"></stop></linearGradient></defs><g transform="translate(725, 0)"><path d="M0 520.1C-52.4 468.6 -104.8 417.2 -162.3 391.7C-219.7 366.2 -282.2 366.6 -340.1 340.1C-398 313.6 -451.3 260.2 -480.5 199C-509.7 137.8 -514.9 68.9 -520.1 0L0 0Z" fill="#041929"></path><path d="M0 416C-41.9 374.9 -83.8 333.8 -129.8 313.4C-175.8 293 -225.8 293.3 -272.1 272.1C-318.4 250.9 -361 208.2 -384.4 159.2C-407.8 110.3 -411.9 55.1 -416 0L0 0Z" fill="#07253d"></path><path d="M0 312C-31.4 281.2 -62.9 250.3 -97.4 235C-131.8 219.7 -169.3 220 -204.1 204.1C-238.8 188.2 -270.8 156.1 -288.3 119.4C-305.8 82.7 -308.9 41.4 -312 0L0 0Z" fill="#0e3152"></path><path d="M0 208C-21 187.5 -41.9 166.9 -64.9 156.7C-87.9 146.5 -112.9 146.7 -136 136C-159.2 125.4 -180.5 104.1 -192.2 79.6C-203.9 55.1 -206 27.6 -208 0L0 0Z" fill="#193e68"></path><path d="M0 104C-10.5 93.7 -21 83.4 -32.5 78.3C-43.9 73.2 -56.4 73.3 -68 68C-79.6 62.7 -90.3 52 -96.1 39.8C-101.9 27.6 -103 13.8 -104 0L0 0Z" fill="#204473"></path></g><g transform="translate(0, 900)"><path d="M0 -520.1C58 -474.8 115.9 -429.5 163 -393.6C210.1 -357.6 246.4 -331 304.1 -304.1C361.7 -277.1 440.9 -249.8 480.5 -199C520.1 -148.3 520.1 -74.1 520.1 0L0 0Z" fill="#041929"></path><path d="M0 -416C46.4 -379.8 92.7 -343.6 130.4 -314.9C168.1 -286.1 197.1 -264.8 243.2 -243.2C289.4 -221.7 352.7 -199.8 384.4 -159.2C416 -118.6 416 -59.3 416 0L0 0Z" fill="#07253d"></path><path d="M0 -312C34.8 -284.9 69.6 -257.7 97.8 -236.1C126.1 -214.6 147.8 -198.6 182.4 -182.4C217 -166.3 264.5 -149.9 288.3 -119.4C312 -89 312 -44.5 312 0L0 0Z" fill="#0e3152"></path><path d="M0 -208C23.2 -189.9 46.4 -171.8 65.2 -157.4C84 -143.1 98.5 -132.4 121.6 -121.6C144.7 -110.8 176.4 -99.9 192.2 -79.6C208 -59.3 208 -29.7 208 0L0 0Z" fill="#193e68"></path><path d="M0 -104C11.6 -95 23.2 -85.9 32.6 -78.7C42 -71.5 49.3 -66.2 60.8 -60.8C72.3 -55.4 88.2 -50 96.1 -39.8C104 -29.7 104 -14.8 104 0L0 0Z" fill="#204473"></path></g></svg>